<svg id="_1" data-name="1" xmlns="http://www.w3.org/2000/svg" xmlns:xlink="http://www.w3.org/1999/xlink" width="24" height="24" viewBox="0 0 24 24">
  <defs>
    <clipPath id="clip-path">
      <path id="icon" d="M11.8,16H2.2A2.2,2.2,0,0,1,0,13.8v-.3A6.423,6.423,0,0,1,1.332,9.566,6.564,6.564,0,0,1,4.7,7.261a4,4,0,1,1,4.61,0,6.565,6.565,0,0,1,3.363,2.3A6.423,6.423,0,0,1,14,13.5v.3A2.2,2.2,0,0,1,11.8,16ZM6.5,8A5.506,5.506,0,0,0,1,13.5v.3A1.2,1.2,0,0,0,2.2,15H11.8A1.2,1.2,0,0,0,13,13.8v-.3A5.506,5.506,0,0,0,7.5,8ZM7,1a3,3,0,1,0,3,3A3,3,0,0,0,7,1Z" transform="translate(5 4)" fill="#767676"/>
    </clipPath>
  </defs>
  <rect id="bounding_box" width="24" height="24" fill="none"/>
  <g id="Group_2" data-name="Group 2">
    <path id="icon-2" data-name="icon" d="M11.8,16H2.2A2.2,2.2,0,0,1,0,13.8v-.3A6.423,6.423,0,0,1,1.332,9.566,6.564,6.564,0,0,1,4.7,7.261a4,4,0,1,1,4.61,0,6.565,6.565,0,0,1,3.363,2.3A6.423,6.423,0,0,1,14,13.5v.3A2.2,2.2,0,0,1,11.8,16ZM6.5,8A5.506,5.506,0,0,0,1,13.5v.3A1.2,1.2,0,0,0,2.2,15H11.8A1.2,1.2,0,0,0,13,13.8v-.3A5.506,5.506,0,0,0,7.5,8ZM7,1a3,3,0,1,0,3,3A3,3,0,0,0,7,1Z" transform="translate(5 4)" fill="#767676"/>
    <g id="Mask_Group_2" data-name="Mask Group 2" clip-path="url(#clip-path)">
      <g id="primary">
        <rect id="Rectangle" width="24" height="24" fill="#03a"/>
      </g>
    </g>
  </g>
</svg>
