<svg id="bell" xmlns="http://www.w3.org/2000/svg" xmlns:xlink="http://www.w3.org/1999/xlink" width="24" height="24" viewBox="0 0 24 24">
  <defs>
    <clipPath id="clip-path">
      <path id="icon" d="M8.5,20A2.5,2.5,0,0,1,6,17.5l.006-.5H.5a.5.5,0,0,1-.5-.5,3.52,3.52,0,0,1,1.792-3.079,2.4,2.4,0,0,0,1.117-2.108V8.044a6.278,6.278,0,0,1,1.912-4.5A5.524,5.524,0,0,1,6,2.693V2.5a2.5,2.5,0,1,1,5,0v.129A5.57,5.57,0,0,1,12.454,3.7a5.725,5.725,0,0,1,1.637,4.05v3.563a2.4,2.4,0,0,0,1.117,2.108A3.519,3.519,0,0,1,17,16.5a.5.5,0,0,1-.5.5H10.992l.008.491A2.508,2.508,0,0,1,8.5,20ZM7.007,17,7,17.507a1.5,1.5,0,0,0,3-.007L9.992,17ZM8.537,3A4.36,4.36,0,0,0,5.513,4.261a5.271,5.271,0,0,0-1.6,3.784v3.269a3.362,3.362,0,0,1-1.631,2.981A2.5,2.5,0,0,0,1.049,16h14.9a2.5,2.5,0,0,0-1.229-1.706,3.362,3.362,0,0,1-1.631-2.981V7.75A4.74,4.74,0,0,0,11.737,4.4,4.457,4.457,0,0,0,8.671,3ZM8.5,1A1.491,1.491,0,0,0,7.025,2.257,5.242,5.242,0,0,1,8.584,2l.125,0a5.389,5.389,0,0,1,1.263.216A1.5,1.5,0,0,0,8.5,1Z" transform="translate(4 2)" fill="#444"/>
    </clipPath>
  </defs>
  <rect id="bounding_box" width="24" height="24" fill="none"/>
  <g id="Group_1" data-name="Group 1">
    <path id="icon-2" data-name="icon" d="M8.5,20A2.5,2.5,0,0,1,6,17.5l.006-.5H.5a.5.5,0,0,1-.5-.5,3.52,3.52,0,0,1,1.792-3.079,2.4,2.4,0,0,0,1.117-2.108V8.044a6.278,6.278,0,0,1,1.912-4.5A5.524,5.524,0,0,1,6,2.693V2.5a2.5,2.5,0,1,1,5,0v.129A5.57,5.57,0,0,1,12.454,3.7a5.725,5.725,0,0,1,1.637,4.05v3.563a2.4,2.4,0,0,0,1.117,2.108A3.519,3.519,0,0,1,17,16.5a.5.5,0,0,1-.5.5H10.992l.008.491A2.508,2.508,0,0,1,8.5,20ZM7.007,17,7,17.507a1.5,1.5,0,0,0,3-.007L9.992,17ZM8.537,3A4.36,4.36,0,0,0,5.513,4.261a5.271,5.271,0,0,0-1.6,3.784v3.269a3.362,3.362,0,0,1-1.631,2.981A2.5,2.5,0,0,0,1.049,16h14.9a2.5,2.5,0,0,0-1.229-1.706,3.362,3.362,0,0,1-1.631-2.981V7.75A4.74,4.74,0,0,0,11.737,4.4,4.457,4.457,0,0,0,8.671,3ZM8.5,1A1.491,1.491,0,0,0,7.025,2.257,5.242,5.242,0,0,1,8.584,2l.125,0a5.389,5.389,0,0,1,1.263.216A1.5,1.5,0,0,0,8.5,1Z" transform="translate(4 2)" fill="#444"/>
    <g id="Mask_Group_1" data-name="Mask Group 1" clip-path="url(#clip-path)">
      <g id="primary">
        <rect id="Rectangle" width="24" height="24" fill="#03a"/>
      </g>
    </g>
  </g>
</svg>
