<svg id="clock" xmlns="http://www.w3.org/2000/svg" xmlns:xlink="http://www.w3.org/1999/xlink" width="24" height="24" viewBox="0 0 24 24">
  <defs>
    <clipPath id="clip-path">
      <path id="icon" d="M0,14A6,6,0,0,1,5,8.09V4.5a.037.037,0,0,1,0-.014.063.063,0,0,0,0-.013.055.055,0,0,0,0-.012.041.041,0,0,1,0-.014V2.5A1.5,1.5,0,0,1,6.5,1H8V.5a.5.5,0,1,1,1,0V1h7V.5a.5.5,0,1,1,1,0V1h1.5A1.5,1.5,0,0,1,20,2.5V4.447a.041.041,0,0,1,0,.014.055.055,0,0,0,0,.012.063.063,0,0,0,0,.013A.037.037,0,0,1,20,4.5v8.109A2.381,2.381,0,0,1,17.634,15H11.91A6,6,0,0,1,0,14Zm1,0A5,5,0,1,0,6,9,5.005,5.005,0,0,0,1,14Zm11,0h5.634A1.381,1.381,0,0,0,19,12.609V5H6V8a5.974,5.974,0,0,1,1,.09V7h3V9H9.31A6,6,0,0,1,11,10.69V10h3v2H11.65A5.947,5.947,0,0,1,12,14ZM6,2.5V3.947H19V2.5a.5.5,0,0,0-.5-.5H17v.5a.5.5,0,0,1-1,0V2H9v.5a.5.5,0,0,1-1,0V2H6.5A.5.5,0,0,0,6,2.5ZM5.967,18a.5.5,0,0,1-.5-.5L5.5,14.279,3.281,12.927a.5.5,0,0,1,.521-.854l2.458,1.5A.5.5,0,0,1,6.5,14l-.029,3.5a.5.5,0,0,1-.5.5ZM15,12V10h3v2Zm0-3V7h3V9ZM11,9V7h3V9Z" transform="translate(2 2)" fill="#767676"/>
    </clipPath>
  </defs>
  <rect id="bounding_box" width="24" height="24" fill="none"/>
  <g id="Group_5" data-name="Group 5">
    <path id="icon-2" data-name="icon" d="M0,14A6,6,0,0,1,5,8.09V4.5a.037.037,0,0,1,0-.014.063.063,0,0,0,0-.013.055.055,0,0,0,0-.012.041.041,0,0,1,0-.014V2.5A1.5,1.5,0,0,1,6.5,1H8V.5a.5.5,0,1,1,1,0V1h7V.5a.5.5,0,1,1,1,0V1h1.5A1.5,1.5,0,0,1,20,2.5V4.447a.041.041,0,0,1,0,.014.055.055,0,0,0,0,.012.063.063,0,0,0,0,.013A.037.037,0,0,1,20,4.5v8.109A2.381,2.381,0,0,1,17.634,15H11.91A6,6,0,0,1,0,14Zm1,0A5,5,0,1,0,6,9,5.005,5.005,0,0,0,1,14Zm11,0h5.634A1.381,1.381,0,0,0,19,12.609V5H6V8a5.974,5.974,0,0,1,1,.09V7h3V9H9.31A6,6,0,0,1,11,10.69V10h3v2H11.65A5.947,5.947,0,0,1,12,14ZM6,2.5V3.947H19V2.5a.5.5,0,0,0-.5-.5H17v.5a.5.5,0,0,1-1,0V2H9v.5a.5.5,0,0,1-1,0V2H6.5A.5.5,0,0,0,6,2.5ZM5.967,18a.5.5,0,0,1-.5-.5L5.5,14.279,3.281,12.927a.5.5,0,0,1,.521-.854l2.458,1.5A.5.5,0,0,1,6.5,14l-.029,3.5a.5.5,0,0,1-.5.5ZM15,12V10h3v2Zm0-3V7h3V9ZM11,9V7h3V9Z" transform="translate(2 2)" fill="#767676"/>
    <g id="Mask_Group_5" data-name="Mask Group 5" clip-path="url(#clip-path)">
      <g id="primary">
        <rect id="Rectangle" width="24" height="24" fill="#03a"/>
      </g>
    </g>
  </g>
</svg>
