<svg id="icn_wallet" xmlns="http://www.w3.org/2000/svg" xmlns:xlink="http://www.w3.org/1999/xlink" width="24" height="24" viewBox="0 0 24 24">
  <defs>
    <clipPath id="clip-path">
      <path id="icon" d="M18,16H2a2,2,0,0,1-2-2V5a2.12,2.12,0,0,1,.035-.349A.136.136,0,0,0,.03,4.628.106.106,0,0,1,.024,4.6V4.57a1.574,1.574,0,0,1,.065-.449A1.837,1.837,0,0,1,1.357,2.846L15.029.038a1.8,1.8,0,0,1,1.532.389,2.292,2.292,0,0,1,.815,1.795V3H18a2,2,0,0,1,2,2v9A2,2,0,0,1,18,16ZM5,4V15H18a1,1,0,0,0,1-1V12H17a2,2,0,0,1-2-2V9a2,2,0,0,1,2-2h2V5a1,1,0,0,0-1-1ZM2,4A1,1,0,0,0,1,5v9a1,1,0,0,0,1,1H3V4ZM17.5,8A1.5,1.5,0,1,0,19,9.507V9.495A1.5,1.5,0,0,0,17.5,8ZM15.39,1a.844.844,0,0,0-.16.015L5.691,2.976H16.376V2.221a1.316,1.316,0,0,0-.447-1.02A.848.848,0,0,0,15.39,1Z" transform="translate(2 4)" fill="#767676"/>
    </clipPath>
  </defs>
  <rect id="bounding_box" width="24" height="24" fill="none"/>
  <g id="Group_3" data-name="Group 3">
    <path id="icon-2" data-name="icon" d="M18,16H2a2,2,0,0,1-2-2V5a2.12,2.12,0,0,1,.035-.349A.136.136,0,0,0,.03,4.628.106.106,0,0,1,.024,4.6V4.57a1.574,1.574,0,0,1,.065-.449A1.837,1.837,0,0,1,1.357,2.846L15.029.038a1.8,1.8,0,0,1,1.532.389,2.292,2.292,0,0,1,.815,1.795V3H18a2,2,0,0,1,2,2v9A2,2,0,0,1,18,16ZM5,4V15H18a1,1,0,0,0,1-1V12H17a2,2,0,0,1-2-2V9a2,2,0,0,1,2-2h2V5a1,1,0,0,0-1-1ZM2,4A1,1,0,0,0,1,5v9a1,1,0,0,0,1,1H3V4ZM17.5,8A1.5,1.5,0,1,0,19,9.507V9.495A1.5,1.5,0,0,0,17.5,8ZM15.39,1a.844.844,0,0,0-.16.015L5.691,2.976H16.376V2.221a1.316,1.316,0,0,0-.447-1.02A.848.848,0,0,0,15.39,1Z" transform="translate(2 4)" fill="#767676"/>
    <g id="Mask_Group_3" data-name="Mask Group 3" clip-path="url(#clip-path)">
      <g id="primary">
        <rect id="Rectangle" width="24" height="24" fill="#03a"/>
      </g>
    </g>
  </g>
</svg>
