<svg id="icn_megaphone" xmlns="http://www.w3.org/2000/svg" xmlns:xlink="http://www.w3.org/1999/xlink" width="24" height="24" viewBox="0 0 24 24">
  <defs>
    <clipPath id="clip-path">
      <path id="Mask" d="M6.678,19.537a3.115,3.115,0,0,1-2.952-4.271L4.632,13H3.388A3.392,3.392,0,0,1,0,9.611V7.5A3.5,3.5,0,0,1,3.5,4H9.477a.009.009,0,0,0,.006,0L9.5,4C15.453,4,17.98.376,18.085.221A.5.5,0,0,1,18.5,0a.489.489,0,0,1,.147.023A.5.5,0,0,1,19,.5V6c.87,0,1,1.566,1,2.5S19.87,11,19,11v5.5a.5.5,0,0,1-.354.479A.545.545,0,0,1,18.5,17a.5.5,0,0,1-.416-.221c-.1-.152-2.582-3.719-8.456-3.773L7.142,19.223A.5.5,0,0,1,6.678,19.537ZM5.709,13,4.653,15.638a2.117,2.117,0,0,0,1.693,2.884L8.555,13H5.709ZM18,1.828h0a11.841,11.841,0,0,1-8,3.163v7.016a11.844,11.844,0,0,1,8,3.163V1.828ZM3.5,5A2.5,2.5,0,0,0,1,7.5V9.611A2.39,2.39,0,0,0,3.388,12H4.923V5Z" fill="#767676"/>
    </clipPath>
  </defs>
  <rect id="bounding_box" width="24" height="24" fill="none"/>
  <g id="color" transform="translate(2 2)">
    <path id="Mask-2" data-name="Mask" d="M6.678,19.537a3.115,3.115,0,0,1-2.952-4.271L4.632,13H3.388A3.392,3.392,0,0,1,0,9.611V7.5A3.5,3.5,0,0,1,3.5,4H9.477a.009.009,0,0,0,.006,0L9.5,4C15.453,4,17.98.376,18.085.221A.5.5,0,0,1,18.5,0a.489.489,0,0,1,.147.023A.5.5,0,0,1,19,.5V6c.87,0,1,1.566,1,2.5S19.87,11,19,11v5.5a.5.5,0,0,1-.354.479A.545.545,0,0,1,18.5,17a.5.5,0,0,1-.416-.221c-.1-.152-2.582-3.719-8.456-3.773L7.142,19.223A.5.5,0,0,1,6.678,19.537ZM5.709,13,4.653,15.638a2.117,2.117,0,0,0,1.693,2.884L8.555,13H5.709ZM18,1.828h0a11.841,11.841,0,0,1-8,3.163v7.016a11.844,11.844,0,0,1,8,3.163V1.828ZM3.5,5A2.5,2.5,0,0,0,1,7.5V9.611A2.39,2.39,0,0,0,3.388,12H4.923V5Z" fill="#767676"/>
    <g id="color-2" data-name="color" clip-path="url(#clip-path)">
      <g id="primary" transform="translate(-2 -2)">
        <rect id="Rectangle" width="24" height="24" fill="#03a"/>
      </g>
    </g>
  </g>
</svg>
