<svg id="icn_chat" xmlns="http://www.w3.org/2000/svg" xmlns:xlink="http://www.w3.org/1999/xlink" width="24" height="24" viewBox="0 0 24 24">
  <defs>
    <clipPath id="clip-path">
      <path id="Mask" d="M16.083,15.89,13.72,14H11a2.976,2.976,0,0,1-2.389-1.206L5.686,13.963A.479.479,0,0,1,5.5,14a.51.51,0,0,1-.28-.086A.5.5,0,0,1,5,13.5V11.909A6,6,0,0,1,6,0h8a6.007,6.007,0,0,1,6,6,5.887,5.887,0,0,1-.806,2.966A2.991,2.991,0,0,1,17,14h-.1v1.5a.5.5,0,0,1-.813.391ZM9,11a2,2,0,0,0,2,2h3a.5.5,0,0,1,.208.11L15.9,14.46V13.5a.517.517,0,0,1,.4-.5H17a2,2,0,0,0,0-4H11A2,2,0,0,0,9,11ZM1,6a4.987,4.987,0,0,0,4.5,4.973A.521.521,0,0,1,6,11.5v1.261L8.154,11.9A2.971,2.971,0,0,1,8,11a3,3,0,0,1,3-3h6a2.956,2.956,0,0,1,1.395.359A4.923,4.923,0,0,0,19,6a5.005,5.005,0,0,0-5-5H6A5.006,5.006,0,0,0,1,6ZM13,6a1,1,0,1,1,1,1A1,1,0,0,1,13,6ZM9,6a1,1,0,1,1,1,1A1,1,0,0,1,9,6ZM5,6A1,1,0,1,1,6,7,1,1,0,0,1,5,6Z" fill="#767676"/>
    </clipPath>
  </defs>
  <rect id="bounding_box" width="24" height="24" fill="none"/>
  <g id="color" transform="translate(2 4)">
    <path id="Mask-2" data-name="Mask" d="M16.083,15.89,13.72,14H11a2.976,2.976,0,0,1-2.389-1.206L5.686,13.963A.479.479,0,0,1,5.5,14a.51.51,0,0,1-.28-.086A.5.5,0,0,1,5,13.5V11.909A6,6,0,0,1,6,0h8a6.007,6.007,0,0,1,6,6,5.887,5.887,0,0,1-.806,2.966A2.991,2.991,0,0,1,17,14h-.1v1.5a.5.5,0,0,1-.813.391ZM9,11a2,2,0,0,0,2,2h3a.5.5,0,0,1,.208.11L15.9,14.46V13.5a.517.517,0,0,1,.4-.5H17a2,2,0,0,0,0-4H11A2,2,0,0,0,9,11ZM1,6a4.987,4.987,0,0,0,4.5,4.973A.521.521,0,0,1,6,11.5v1.261L8.154,11.9A2.971,2.971,0,0,1,8,11a3,3,0,0,1,3-3h6a2.956,2.956,0,0,1,1.395.359A4.923,4.923,0,0,0,19,6a5.005,5.005,0,0,0-5-5H6A5.006,5.006,0,0,0,1,6ZM13,6a1,1,0,1,1,1,1A1,1,0,0,1,13,6ZM9,6a1,1,0,1,1,1,1A1,1,0,0,1,9,6ZM5,6A1,1,0,1,1,6,7,1,1,0,0,1,5,6Z" fill="#767676"/>
    <g id="color-2" data-name="color" clip-path="url(#clip-path)">
      <g id="primary" transform="translate(-2 -4)">
        <rect id="Rectangle" width="24" height="24" fill="#03a"/>
      </g>
    </g>
  </g>
</svg>
