<svg id="past" xmlns="http://www.w3.org/2000/svg" xmlns:xlink="http://www.w3.org/1999/xlink" width="24" height="24" viewBox="0 0 24 24">
  <defs>
    <clipPath id="clip-path">
      <path id="icon" d="M11,18a8.938,8.938,0,0,1-6.375-2.647c-.208-.21-.411-.434-.6-.666a.5.5,0,0,1,.388-.817.5.5,0,0,1,.386.183c.171.209.352.408.536.594A8,8,0,1,0,11,1,8.057,8.057,0,0,0,3.038,8.255L4.146,7.146a.5.5,0,0,1,.708,0,.5.5,0,0,1,0,.708l-2,2a.5.5,0,0,1-.707,0l-2-2a.5.5,0,0,1,0-.708.5.5,0,0,1,.708,0l1.18,1.181A9,9,0,1,1,11,18Zm2.409-5.514a.493.493,0,0,1-.353-.146l-2.91-2.909A.5.5,0,0,1,10,9.077V4.5a.5.5,0,1,1,1,0V8.87l2.763,2.763a.5.5,0,0,1-.354.852Z" transform="translate(1 3)" fill="#767676"/>
    </clipPath>
  </defs>
  <rect id="bounding_box" width="24" height="24" fill="none"/>
  <g id="Group_4" data-name="Group 4">
    <path id="icon-2" data-name="icon" d="M11,18a8.938,8.938,0,0,1-6.375-2.647c-.208-.21-.411-.434-.6-.666a.5.5,0,0,1,.388-.817.5.5,0,0,1,.386.183c.171.209.352.408.536.594A8,8,0,1,0,11,1,8.057,8.057,0,0,0,3.038,8.255L4.146,7.146a.5.5,0,0,1,.708,0,.5.5,0,0,1,0,.708l-2,2a.5.5,0,0,1-.707,0l-2-2a.5.5,0,0,1,0-.708.5.5,0,0,1,.708,0l1.18,1.181A9,9,0,1,1,11,18Zm2.409-5.514a.493.493,0,0,1-.353-.146l-2.91-2.909A.5.5,0,0,1,10,9.077V4.5a.5.5,0,1,1,1,0V8.87l2.763,2.763a.5.5,0,0,1-.354.852Z" transform="translate(1 3)" fill="#767676"/>
    <g id="Mask_Group_4" data-name="Mask Group 4" clip-path="url(#clip-path)">
      <g id="primary" transform="translate(1)">
        <rect id="Rectangle" width="24" height="24" fill="#03a"/>
      </g>
    </g>
  </g>
</svg>
