<svg id="settings" xmlns="http://www.w3.org/2000/svg" xmlns:xlink="http://www.w3.org/1999/xlink" width="24" height="24" viewBox="0 0 24 24">
  <defs>
    <clipPath id="clip-path">
      <path id="Mask" d="M13.925,21H12.075a.946.946,0,0,1-.957-.932v-.879a.34.34,0,0,0-.217-.32,5.618,5.618,0,0,1-1.274-.7.39.39,0,0,0-.232-.073.444.444,0,0,0-.217.057l-.834.455a.991.991,0,0,1-.468.119.952.952,0,0,1-.818-.455l-.921-1.5a.9.9,0,0,1-.106-.715.94.94,0,0,1,.459-.58l.851-.462a.348.348,0,0,0,.19-.355A4.742,4.742,0,0,1,7.485,14H2a2,2,0,0,1-2-2v-.5A5.448,5.448,0,0,1,.987,8.364,5.51,5.51,0,0,1,3.513,6.377a3.5,3.5,0,1,1,3.974,0,5.545,5.545,0,0,1,3.04,2.93l.1-.05c.088-.044.178-.089.272-.125a.342.342,0,0,0,.218-.32V7.933A.946.946,0,0,1,12.075,7h1.849a.945.945,0,0,1,.956.932v.879a.342.342,0,0,0,.218.32,5.6,5.6,0,0,1,1.274.7.388.388,0,0,0,.23.071.465.465,0,0,0,.219-.055l.834-.455a.987.987,0,0,1,.466-.118.956.956,0,0,1,.82.453l.922,1.5a.906.906,0,0,1,.105.715.944.944,0,0,1-.459.58l-.848.462a.346.346,0,0,0-.193.355,4.754,4.754,0,0,1,0,1.305.346.346,0,0,0,.191.354l.85.462a.944.944,0,0,1,.459.58.9.9,0,0,1-.106.715l-.92,1.5a.959.959,0,0,1-.821.455.972.972,0,0,1-.465-.119l-.835-.455a.459.459,0,0,0-.219-.056.389.389,0,0,0-.231.072,5.567,5.567,0,0,1-1.274.7.342.342,0,0,0-.218.32v.879A.945.945,0,0,1,13.925,21ZM9.4,17.092a1.383,1.383,0,0,1,.825.267,4.535,4.535,0,0,0,1.047.578,1.338,1.338,0,0,1,.851,1.251v.879L13.925,20l-.044-.812a1.336,1.336,0,0,1,.851-1.251,4.518,4.518,0,0,0,1.047-.578,1.382,1.382,0,0,1,.825-.267,1.46,1.46,0,0,1,.7.178l.834.453.834-1.411-.786-.426a1.343,1.343,0,0,1-.7-1.369,3.726,3.726,0,0,0,0-1.033,1.343,1.343,0,0,1,.707-1.37l.783-.426-.878-1.431-.789.472a1.465,1.465,0,0,1-.7.178,1.381,1.381,0,0,1-.825-.267,4.519,4.519,0,0,0-1.047-.578,1.334,1.334,0,0,1-.851-1.251V7.933L12.075,8l.044.812a1.335,1.335,0,0,1-.851,1.251,4.535,4.535,0,0,0-1.047.578,1.384,1.384,0,0,1-.825.267,1.461,1.461,0,0,1-.7-.178l-.834-.453-.834,1.411.785.426a1.345,1.345,0,0,1,.706,1.369,3.725,3.725,0,0,0,0,1.033,1.343,1.343,0,0,1-.7,1.369l-.786.427.878,1.431L8.7,17.27A1.464,1.464,0,0,1,9.4,17.092ZM5.5,7A4.505,4.505,0,0,0,1,11.5V12a1,1,0,0,0,1,1H7.347l0,0,0,0-.848-.462a.939.939,0,0,1-.46-.58.9.9,0,0,1,.106-.715l.922-1.5a.948.948,0,0,1,.818-.456.979.979,0,0,1,.466.119l.835.455a.454.454,0,0,0,.218.056.39.39,0,0,0,.231-.072l.01-.006.009-.005A4.47,4.47,0,0,0,5.5,7Zm0-6A2.5,2.5,0,1,0,8,3.5,2.5,2.5,0,0,0,5.5,1ZM13,17a3,3,0,1,1,3-3A3,3,0,0,1,13,17Zm0-5a2,2,0,1,0,2,2A2,2,0,0,0,13,12Z" fill="#767676"/>
    </clipPath>
  </defs>
  <rect id="bounding_box" width="24" height="24" fill="none"/>
  <g id="color" transform="translate(2 2)">
    <path id="Mask-2" data-name="Mask" d="M13.925,21H12.075a.946.946,0,0,1-.957-.932v-.879a.34.34,0,0,0-.217-.32,5.618,5.618,0,0,1-1.274-.7.39.39,0,0,0-.232-.073.444.444,0,0,0-.217.057l-.834.455a.991.991,0,0,1-.468.119.952.952,0,0,1-.818-.455l-.921-1.5a.9.9,0,0,1-.106-.715.94.94,0,0,1,.459-.58l.851-.462a.348.348,0,0,0,.19-.355A4.742,4.742,0,0,1,7.485,14H2a2,2,0,0,1-2-2v-.5A5.448,5.448,0,0,1,.987,8.364,5.51,5.51,0,0,1,3.513,6.377a3.5,3.5,0,1,1,3.974,0,5.545,5.545,0,0,1,3.04,2.93l.1-.05c.088-.044.178-.089.272-.125a.342.342,0,0,0,.218-.32V7.933A.946.946,0,0,1,12.075,7h1.849a.945.945,0,0,1,.956.932v.879a.342.342,0,0,0,.218.32,5.6,5.6,0,0,1,1.274.7.388.388,0,0,0,.23.071.465.465,0,0,0,.219-.055l.834-.455a.987.987,0,0,1,.466-.118.956.956,0,0,1,.82.453l.922,1.5a.906.906,0,0,1,.105.715.944.944,0,0,1-.459.58l-.848.462a.346.346,0,0,0-.193.355,4.754,4.754,0,0,1,0,1.305.346.346,0,0,0,.191.354l.85.462a.944.944,0,0,1,.459.58.9.9,0,0,1-.106.715l-.92,1.5a.959.959,0,0,1-.821.455.972.972,0,0,1-.465-.119l-.835-.455a.459.459,0,0,0-.219-.056.389.389,0,0,0-.231.072,5.567,5.567,0,0,1-1.274.7.342.342,0,0,0-.218.32v.879A.945.945,0,0,1,13.925,21ZM9.4,17.092a1.383,1.383,0,0,1,.825.267,4.535,4.535,0,0,0,1.047.578,1.338,1.338,0,0,1,.851,1.251v.879L13.925,20l-.044-.812a1.336,1.336,0,0,1,.851-1.251,4.518,4.518,0,0,0,1.047-.578,1.382,1.382,0,0,1,.825-.267,1.46,1.46,0,0,1,.7.178l.834.453.834-1.411-.786-.426a1.343,1.343,0,0,1-.7-1.369,3.726,3.726,0,0,0,0-1.033,1.343,1.343,0,0,1,.707-1.37l.783-.426-.878-1.431-.789.472a1.465,1.465,0,0,1-.7.178,1.381,1.381,0,0,1-.825-.267,4.519,4.519,0,0,0-1.047-.578,1.334,1.334,0,0,1-.851-1.251V7.933L12.075,8l.044.812a1.335,1.335,0,0,1-.851,1.251,4.535,4.535,0,0,0-1.047.578,1.384,1.384,0,0,1-.825.267,1.461,1.461,0,0,1-.7-.178l-.834-.453-.834,1.411.785.426a1.345,1.345,0,0,1,.706,1.369,3.725,3.725,0,0,0,0,1.033,1.343,1.343,0,0,1-.7,1.369l-.786.427.878,1.431L8.7,17.27A1.464,1.464,0,0,1,9.4,17.092ZM5.5,7A4.505,4.505,0,0,0,1,11.5V12a1,1,0,0,0,1,1H7.347l0,0,0,0-.848-.462a.939.939,0,0,1-.46-.58.9.9,0,0,1,.106-.715l.922-1.5a.948.948,0,0,1,.818-.456.979.979,0,0,1,.466.119l.835.455a.454.454,0,0,0,.218.056.39.39,0,0,0,.231-.072l.01-.006.009-.005A4.47,4.47,0,0,0,5.5,7Zm0-6A2.5,2.5,0,1,0,8,3.5,2.5,2.5,0,0,0,5.5,1ZM13,17a3,3,0,1,1,3-3A3,3,0,0,1,13,17Zm0-5a2,2,0,1,0,2,2A2,2,0,0,0,13,12Z" fill="#767676"/>
    <g id="color-2" data-name="color" clip-path="url(#clip-path)">
      <g id="primary" transform="translate(-2 -2)">
        <rect id="Rectangle" width="24" height="24" fill="#03a"/>
      </g>
    </g>
  </g>
</svg>
